<svg xmlns="http://www.w3.org/2000/svg" width="1200" height="720" viewBox="0 0 1200 720" fill="none">
  <defs>
    <linearGradient id="bg" x1="0" y1="0" x2="1200" y2="720" gradientUnits="userSpaceOnUse">
      <stop stop-color="#0f172a"/>
      <stop offset="1" stop-color="#1e293b"/>
    </linearGradient>
    <linearGradient id="accent" x1="230" y1="170" x2="970" y2="550" gradientUnits="userSpaceOnUse">
      <stop stop-color="#38bdf8"/>
      <stop offset="1" stop-color="#f59e0b"/>
    </linearGradient>
  </defs>
  <rect width="1200" height="720" rx="36" fill="url(#bg)"/>
  <rect x="70" y="70" width="1060" height="580" rx="28" fill="#111827" stroke="#334155" stroke-width="4"/>
  <rect x="120" y="120" width="960" height="56" rx="16" fill="#1f2937"/>
  <rect x="160" y="138" width="180" height="20" rx="10" fill="#334155"/>
  <rect x="120" y="220" width="420" height="250" rx="24" fill="url(#accent)" opacity="0.16"/>
  <rect x="570" y="220" width="510" height="28" rx="14" fill="#475569"/>
  <rect x="570" y="270" width="420" height="20" rx="10" fill="#334155"/>
  <rect x="570" y="310" width="470" height="20" rx="10" fill="#334155"/>
  <rect x="570" y="350" width="360" height="20" rx="10" fill="#334155"/>
  <rect x="570" y="410" width="180" height="44" rx="22" fill="#0ea5e9" opacity="0.85"/>
  <rect x="770" y="410" width="150" height="44" rx="22" fill="#f59e0b" opacity="0.85"/>
  <text x="600" y="540" fill="#e2e8f0" font-family="Arial, Helvetica, sans-serif" font-size="44" font-weight="700" text-anchor="middle">Project Screenshot Placeholder</text>
  <text x="600" y="586" fill="#94a3b8" font-family="Arial, Helvetica, sans-serif" font-size="24" text-anchor="middle">Replace this file or update the image path in the project object later.</text>
</svg>
